<svg xmlns="http://www.w3.org/2000/svg" width="880" height="336.0" viewBox="0 0 880 336.0" font-family="DejaVu Sans, Helvetica, Arial, sans-serif"><rect width="880" height="336.0" fill="#ffffff"/>
<text x="74.0" y="26" font-size="15" font-weight="600" fill="#1a1a2e">Gaps between working stations:  G0 and G4 are road ends, G1..G3 are interior</text>
<line x1="74.0" y1="122.0" x2="806.0" y2="122.0" stroke="#374151" stroke-width="4" stroke-linecap="round"/>
<line x1="74.0" y1="107.0" x2="74.0" y2="137.0" stroke="#6b7280" stroke-width="1.6"/>
<text x="74.0" y="154.0" font-size="12" fill="#6b7280" text-anchor="middle">0</text>
<line x1="806.0" y1="107.0" x2="806.0" y2="137.0" stroke="#6b7280" stroke-width="1.6"/>
<text x="806.0" y="154.0" font-size="12" fill="#6b7280" text-anchor="middle">12</text>
<rect x="74.0" y="116.0" width="61.0" height="12" fill="#93c5fd" opacity="0.30"/>
<rect x="135.0" y="116.0" width="183.0" height="12" fill="#93c5fd" opacity="0.30"/>
<rect x="318.0" y="116.0" width="183.0" height="12" fill="#93c5fd" opacity="0.30"/>
<rect x="501.0" y="116.0" width="183.0" height="12" fill="#93c5fd" opacity="0.30"/>
<rect x="684.0" y="116.0" width="122.0" height="12" fill="#93c5fd" opacity="0.30"/>
<rect x="129.5" y="78.0" width="11" height="17" rx="2" fill="#0d9488"/>
<text x="135.0" y="71.0" font-size="12.5" font-weight="700" fill="#0d9488" text-anchor="middle">1</text>
<rect x="312.5" y="78.0" width="11" height="17" rx="2" fill="#0d9488"/>
<text x="318.0" y="71.0" font-size="12.5" font-weight="700" fill="#0d9488" text-anchor="middle">2</text>
<rect x="495.5" y="78.0" width="11" height="17" rx="2" fill="#0d9488"/>
<text x="501.0" y="71.0" font-size="12.5" font-weight="700" fill="#0d9488" text-anchor="middle">3</text>
<rect x="678.5" y="78.0" width="11" height="17" rx="2" fill="#0d9488"/>
<text x="684.0" y="71.0" font-size="12.5" font-weight="700" fill="#0d9488" text-anchor="middle">4</text>
<text x="74.0" y="321.0" font-size="11.5" fill="#6b7280">A road-end gap is serviced from one end only. An interior gap may be entered from either end, and that is the difference</text>
<text x="74.0" y="336.0" font-size="11.5" fill="#6b7280">between the E and I cost families.</text>
</svg>